<svg width="44" height="54" viewBox="0 0 44 54" fill="none" xmlns="http://www.w3.org/2000/svg">
<path d="M6 5.46628V26.8413L12.625 22.8413L19.375 26.8413V5.46628H6ZM38 0.216278C39.4167 0.216278 40.6667 0.757945 41.75 1.84128C42.8333 2.84128 43.375 4.04961 43.375 5.46628V48.2163C43.375 49.6329 42.8333 50.8829 41.75 51.9663C40.6667 52.9663 39.4167 53.4663 38 53.4663H6C4.58333 53.4663 3.33333 52.9663 2.25 51.9663C1.16667 50.8829 0.625 49.6329 0.625 48.2163V5.46628C0.625 4.04961 1.16667 2.84128 2.25 1.84128C3.33333 0.757945 4.58333 0.216278 6 0.216278H38Z" fill="#B3311F"/>
</svg>
