<svg width="49" height="49" viewBox="0 0 49 49" fill="none" xmlns="http://www.w3.org/2000/svg">
<path d="M39.375 0.841278C41.0417 0.841278 42.5833 1.25794 44 2.09128C45.4167 2.92461 46.5417 4.04961 47.375 5.46628C48.2083 6.88294 48.625 8.46628 48.625 10.2163C48.625 11.8829 48.2083 13.4246 47.375 14.8413C46.5417 16.2579 45.4167 17.3829 44 18.2163C42.5833 19.0496 41.0417 19.4663 39.375 19.4663H38V22.2163C38 24.7996 37.5 27.2579 36.5 29.5913C35.5 31.8413 34.0833 33.8413 32.25 35.5913C30.5 37.2579 28.4583 38.5913 26.125 39.5913C23.875 40.5079 21.4167 40.9246 18.75 40.8413C16.1667 40.7579 13.7917 40.2163 11.625 39.2163C9.45833 38.1329 7.54167 36.6746 5.875 34.8413C4.20833 33.0079 2.91667 30.9663 2 28.7163C1.08333 26.3829 0.625 23.9246 0.625 21.3413V6.21628C0.625 4.71628 1.125 3.46628 2.125 2.46628C3.20833 1.38294 4.5 0.841278 6 0.841278H39.375ZM32.625 6.21628H6V14.2163H32.625V6.21628ZM39.375 14.2163C40.4583 14.2163 41.375 13.8413 42.125 13.0913C42.9583 12.2579 43.375 11.2996 43.375 10.2163C43.375 9.04961 42.9583 8.09128 42.125 7.34128C41.375 6.59128 40.4583 6.21628 39.375 6.21628H38V14.2163H39.375ZM0.625 43.4663V48.8413H43.375V43.4663H0.625Z" fill="#B3311F"/>
</svg>
