<svg width="57" height="41" viewBox="0 0 57 41" fill="none" xmlns="http://www.w3.org/2000/svg">
<path d="M43.375 0.375H56.625V8.375H48.625V32.375C48.625 34.5417 47.8333 36.4167 46.25 38C44.6667 39.5833 42.7917 40.375 40.625 40.375C38.4583 40.375 36.5833 39.5833 35 38C33.4167 36.4167 32.625 34.5417 32.625 32.375C32.625 30.2083 33.4167 28.3333 35 26.75C36.5833 25.1667 38.4583 24.375 40.625 24.375C41.7083 24.375 42.625 24.5 43.375 24.75V0.375ZM24.875 11L28.625 5.625H10L13.75 11H24.875ZM0.625 0.375H38L22 24.375V35H27.375V40.375H11.375V35H16.625V24.375L0.625 0.375Z" fill="#B3311F"/>
</svg>
