<svg width="54" height="51" viewBox="0 0 54 51" fill="none" xmlns="http://www.w3.org/2000/svg">
<path d="M32.375 10.8413V5.46628H21.625V10.8413H32.375ZM48.375 10.8413C49.875 10.8413 51.125 11.3829 52.125 12.4663C53.125 13.4663 53.625 14.7163 53.625 16.2163V45.4663C53.625 46.9663 53.125 48.2579 52.125 49.3413C51.125 50.3413 49.875 50.8413 48.375 50.8413H5.625C4.125 50.8413 2.875 50.3413 1.875 49.3413C0.875 48.2579 0.375 46.9663 0.375 45.4663V16.2163C0.375 14.7163 0.875 13.4663 1.875 12.4663C2.875 11.3829 4.125 10.8413 5.625 10.8413H16.375V5.46628C16.375 3.96628 16.875 2.71628 17.875 1.71628C18.875 0.716278 20.125 0.216278 21.625 0.216278H32.375C33.875 0.216278 35.125 0.716278 36.125 1.71628C37.125 2.71628 37.625 3.96628 37.625 5.46628V10.8413H48.375Z" fill="#B3311F"/>
</svg>
